<svg style="height: 512px; width: 512px;" xmlns="http://www.w3.org/2000/svg" viewBox="0 0 512 512"><rect fill="#212126" fill-opacity="1" height="512" width="512" rx="32" ry="32"></rect><g class="" style="touch-action: none;" transform="translate(30,0)"><g transform="translate(25.6, 25.6) scale(0.9, 0.9) rotate(0, 256, 256)"><path d="M204.34 32L200.14 247L244.54 247L240.34 32Z" class="" fill="#ffffff" fill-opacity="1"></path><path d="M185.217 34.615C138.694 43.565 84.74 71.663 29.66 103.07C85.1 108.474 140.385 115.315 183.834 140.81Z" class="" fill="#668f6c" fill-opacity="1"></path><path d="M330.327 78.531C323.007 78.531 316.147 82.285 310.637 89.429C305.127 96.573 301.402 106.994 301.402 118.694C301.402 130.394 305.126 140.818 310.637 147.962C316.147 155.107 323.007 158.859 330.327 158.859C337.649 158.859 344.509 155.107 350.02 147.963C355.53 140.82 359.254 130.396 359.254 118.696C359.254 106.996 355.53 96.576 350.02 89.431C344.51 82.287 337.65 78.534 330.328 78.534Z" class="" fill="#ffffff" fill-opacity="1"></path><path d="M464.34 98L464.34 109L376.602 109C377.022 112.16 377.254 115.394 377.254 118.693C377.254 121.51 377.092 124.283 376.784 127C407.221 126.968 436.239 127.005 464.34 127L464.34 138L482.34 138L482.34 98Z" class="" fill="#ffffff" fill-opacity="1"></path><path d="M421.096 144.984C419.698 144.986 419.706 144.984 418.283 144.986C412.14 144.996 406.029 145.014 401.131 145.036L390.321 167.729L345.481 173.743C340.755 175.733 335.661 176.856 330.329 176.856C323.399 176.856 316.869 174.974 311.039 171.73L279.802 247L352.517 247L347.854 209.508L329.394 211.688L327.284 193.811L329.47 193.554L329.537 194.046L402.377 184.272Z" class="" fill="#fff" fill-opacity="1"></path><path d="M90.526 265L104.68 311L157.695 311L150.619 265Z" class="" fill="#fff" fill-opacity="1"></path><path d="M168.83 265L175.906 311L268.773 311L275.85 265Z" class="selected" fill="#fff" fill-opacity="1"></path><path d="M294.06 265L286.984 311L340 311L354.154 265Z" class="" fill="#fff" fill-opacity="1"></path><path d="M110.217 329L124.371 375L167.541 375L160.466 329Z" class="" fill="#fff" fill-opacity="1"></path><path d="M178.677 329L185.752 375L258.928 375L266.004 329Z" class="" fill="#ffffff" fill-opacity="1"></path><path d="M284.215 329L277.139 375L320.309 375L334.462 329Z" class="" fill="#ffffff" fill-opacity="1"></path><path d="M129.91 393L148.986 415L179.85 415L170.31 393Z" class="" fill="#ffffff" fill-opacity="1"></path><path d="M188.52 393L198.06 415L246.62 415L256.158 393Z" class="" fill="#ffffff" fill-opacity="1"></path><path d="M274.37 393L264.83 415L295.693 415L314.77 393Z" class="" fill="#ffffff" fill-opacity="1"></path><path d="M195.727 433L195.317 494L249.363 494L248.953 433Z" class="" fill="#ffffff" fill-opacity="1"></path></g></g></svg>