<svg id="svg" version="1.1" xmlns="http://www.w3.org/2000/svg" xmlns:xlink="http://www.w3.org/1999/xlink" width="400" height="400" viewBox="0, 0, 400,400"><g id="svgg"><path id="path0" d="M74.000 45.900 C 74.000 46.175,79.985 52.475,87.300 59.901 C 94.615 67.327,102.841 75.697,105.580 78.502 L 110.559 83.600 147.856 83.600 C 168.369 83.600,185.245 83.451,185.357 83.269 C 185.567 82.929,198.028 76.681,236.500 57.623 C 250.517 50.679,258.400 46.564,258.400 46.189 C 258.400 45.677,246.825 45.591,166.200 45.502 C 92.679 45.421,74.000 45.501,74.000 45.900 M193.971 274.298 C 193.016 275.344,187.602 280.970,181.938 286.800 C 176.274 292.630,168.933 300.190,165.624 303.600 L 159.607 309.800 159.632 346.400 C 159.645 366.530,159.806 383.360,159.988 383.800 C 160.353 384.679,154.448 390.513,233.147 311.526 C 254.579 290.016,270.808 273.424,270.709 273.126 C 270.566 272.697,263.594 272.581,233.120 272.498 L 195.706 272.396 193.971 274.298 M41.843 309.033 C 41.709 309.381,41.600 309.725,41.600 309.798 C 41.600 310.044,46.388 313.200,46.762 313.200 C 46.966 313.200,47.193 313.335,47.267 313.500 C 47.388 313.774,50.004 315.602,51.691 316.594 C 52.071 316.817,54.411 318.372,56.891 320.049 C 63.880 324.776,71.230 329.600,71.442 329.600 C 71.548 329.600,72.578 330.275,73.731 331.100 C 74.885 331.925,76.127 332.780,76.491 333.000 C 77.373 333.532,91.688 343.090,92.200 343.489 C 92.420 343.660,93.320 344.271,94.200 344.846 C 103.833 351.142,111.605 356.247,112.501 356.866 C 113.462 357.529,115.181 358.679,117.200 360.010 C 117.530 360.228,123.023 363.869,129.408 368.103 C 152.054 383.120,152.374 383.319,153.015 382.788 C 153.940 382.019,153.894 308.998,152.967 308.643 C 151.301 308.004,42.091 308.387,41.843 309.033 " stroke="none" fill="#242424" fill-rule="evenodd"></path><path id="path1" d="M73.531 45.483 C 73.239 45.836,78.214 51.125,91.865 64.976 L 110.600 83.985 147.851 83.993 C 182.865 84.000,185.134 83.958,185.632 83.300 C 186.082 82.704,186.078 82.675,185.601 83.100 C 185.161 83.492,177.026 83.600,147.800 83.600 L 110.559 83.600 105.580 78.502 C 102.841 75.697,94.615 67.327,87.300 59.901 C 79.985 52.475,74.000 46.175,74.000 45.900 C 74.000 45.501,92.679 45.421,166.200 45.502 C 248.397 45.592,258.400 45.669,258.400 46.212 C 258.400 46.546,257.950 46.991,257.400 47.200 C 256.260 47.633,256.044 48.021,257.100 47.737 C 258.659 47.319,259.414 46.443,258.770 45.799 C 257.966 44.994,74.196 44.682,73.531 45.483 M276.667 45.067 C 276.015 45.719,276.372 156.279,277.028 156.823 C 278.057 157.677,388.687 46.883,388.030 45.656 L 387.572 44.800 332.253 44.800 C 301.827 44.800,276.813 44.920,276.667 45.067 M254.100 48.812 C 253.605 49.011,253.200 49.270,253.200 49.387 C 253.200 49.775,253.837 49.608,254.624 49.013 C 255.508 48.343,255.385 48.296,254.100 48.812 M250.900 50.412 C 250.405 50.611,250.000 50.870,250.000 50.987 C 250.000 51.375,250.637 51.208,251.424 50.613 C 252.308 49.943,252.185 49.896,250.900 50.412 M247.700 52.012 C 247.205 52.211,246.800 52.470,246.800 52.587 C 246.800 52.975,247.437 52.808,248.224 52.213 C 249.108 51.543,248.985 51.496,247.700 52.012 M244.500 53.612 C 244.005 53.811,243.600 54.070,243.600 54.187 C 243.600 54.575,244.237 54.408,245.024 53.813 C 245.908 53.143,245.785 53.096,244.500 53.612 M241.300 55.212 C 240.805 55.411,240.400 55.670,240.400 55.787 C 240.400 56.175,241.037 56.008,241.824 55.413 C 242.708 54.743,242.585 54.696,241.300 55.212 M237.700 56.996 C 236.985 57.307,236.400 57.651,236.400 57.760 C 236.400 58.069,238.774 57.165,239.024 56.761 C 239.305 56.307,239.273 56.313,237.700 56.996 M234.500 58.634 C 233.785 58.946,233.200 59.282,233.200 59.380 C 233.200 59.675,235.584 58.749,235.824 58.361 C 236.091 57.929,236.129 57.921,234.500 58.634 M231.100 60.229 C 229.549 61.070,229.725 61.361,231.300 60.559 C 232.808 59.793,233.075 59.594,232.567 59.616 C 232.365 59.625,231.705 59.901,231.100 60.229 M227.900 61.829 C 226.349 62.670,226.525 62.961,228.100 62.159 C 229.608 61.393,229.875 61.194,229.367 61.216 C 229.165 61.225,228.505 61.501,227.900 61.829 M223.900 63.829 C 222.349 64.670,222.525 64.961,224.100 64.159 C 225.608 63.393,225.875 63.194,225.367 63.216 C 225.165 63.225,224.505 63.501,223.900 63.829 M220.700 65.429 C 219.149 66.270,219.325 66.561,220.900 65.759 C 222.408 64.993,222.675 64.794,222.167 64.816 C 221.965 64.825,221.305 65.101,220.700 65.429 M217.500 67.029 C 215.949 67.870,216.125 68.161,217.700 67.359 C 219.208 66.593,219.475 66.394,218.967 66.416 C 218.765 66.425,218.105 66.701,217.500 67.029 M214.100 68.596 C 213.385 68.907,212.800 69.251,212.800 69.360 C 212.800 69.669,215.174 68.765,215.424 68.361 C 215.705 67.907,215.673 67.913,214.100 68.596 M210.900 70.196 C 210.185 70.507,209.600 70.851,209.600 70.960 C 209.600 71.269,211.974 70.365,212.224 69.961 C 212.505 69.507,212.473 69.513,210.900 70.196 M207.700 71.796 C 206.985 72.107,206.400 72.451,206.400 72.560 C 206.400 72.869,208.774 71.965,209.024 71.561 C 209.305 71.107,209.273 71.113,207.700 71.796 M204.500 73.396 C 203.785 73.707,203.200 74.051,203.200 74.160 C 203.200 74.469,205.574 73.565,205.824 73.161 C 206.105 72.707,206.073 72.713,204.500 73.396 M194.100 78.596 C 193.385 78.907,192.800 79.256,192.800 79.372 C 192.800 79.619,194.826 78.796,195.380 78.324 C 195.905 77.876,195.614 77.938,194.100 78.596 M190.900 80.196 C 190.185 80.507,189.600 80.856,189.600 80.972 C 189.600 81.219,191.626 80.396,192.180 79.924 C 192.705 79.476,192.414 79.538,190.900 80.196 M187.700 81.796 C 186.985 82.107,186.400 82.456,186.400 82.572 C 186.400 82.819,188.426 81.996,188.980 81.524 C 189.505 81.076,189.214 81.138,187.700 81.796 M185.109 283.021 C 178.889 289.322,173.742 294.686,173.670 294.939 C 173.599 295.193,175.202 293.690,177.233 291.600 C 192.756 275.623,195.821 272.574,196.557 272.383 C 197.130 272.234,197.239 272.072,196.905 271.865 C 196.587 271.668,192.485 275.548,185.109 283.021 M270.654 272.997 C 270.832 273.461,260.569 283.982,233.150 311.442 C 212.387 332.236,195.317 349.373,195.216 349.525 C 195.115 349.676,212.170 332.700,233.116 311.801 C 269.444 275.553,271.731 273.175,270.805 272.603 C 270.575 272.461,270.512 272.627,270.654 272.997 M160.900 307.980 L 159.200 309.879 159.200 346.891 C 159.200 380.024,159.266 383.957,159.828 384.423 C 160.372 384.875,162.768 382.618,177.928 367.375 L 195.400 349.806 177.858 367.203 C 162.624 382.311,160.272 384.495,159.986 383.800 C 159.805 383.360,159.644 366.536,159.628 346.414 L 159.600 309.827 161.485 307.914 C 162.522 306.861,163.197 306.018,162.985 306.041 C 162.773 306.063,161.835 306.936,160.900 307.980 M41.452 308.900 C 41.106 310.192,41.129 310.287,41.857 310.566 C 42.382 310.768,42.421 310.707,42.050 310.260 C 40.426 308.304,37.815 308.387,97.606 308.497 C 128.141 308.554,153.040 308.465,152.938 308.300 C 152.836 308.135,127.764 308.000,97.223 308.000 L 41.693 308.000 41.452 308.900 M45.422 312.835 C 45.748 313.363,47.201 314.082,47.197 313.714 C 47.195 313.541,46.745 313.192,46.196 312.937 C 45.648 312.683,45.299 312.637,45.422 312.835 M49.400 315.377 C 50.990 316.789,53.268 318.047,52.451 317.062 C 52.149 316.698,51.732 316.400,51.524 316.400 C 51.317 316.400,50.484 315.930,49.673 315.356 L 48.200 314.311 49.400 315.377 M53.200 317.746 C 53.200 317.856,53.740 318.330,54.400 318.800 C 55.060 319.270,55.600 319.564,55.600 319.454 C 55.600 319.344,55.060 318.870,54.400 318.400 C 53.740 317.930,53.200 317.636,53.200 317.746 M58.000 320.946 C 58.000 321.056,58.540 321.530,59.200 322.000 C 59.860 322.470,60.400 322.764,60.400 322.654 C 60.400 322.544,59.860 322.070,59.200 321.600 C 58.540 321.130,58.000 320.836,58.000 320.946 M63.694 324.890 C 64.882 325.900,67.200 327.347,67.200 327.079 C 67.200 326.988,66.165 326.249,64.900 325.437 C 63.635 324.625,63.092 324.379,63.694 324.890 M67.600 327.366 C 67.600 327.566,70.738 329.724,72.044 330.424 C 72.689 330.769,72.826 330.766,72.609 330.415 C 72.451 330.160,71.935 329.782,71.461 329.576 C 70.988 329.370,69.925 328.749,69.100 328.195 C 68.275 327.641,67.600 327.268,67.600 327.366 M74.200 331.777 C 75.790 333.189,78.068 334.447,77.251 333.462 C 76.949 333.098,76.532 332.800,76.324 332.800 C 76.117 332.800,75.284 332.330,74.473 331.756 L 73.000 330.711 74.200 331.777 M78.000 334.146 C 78.000 334.256,78.540 334.730,79.200 335.200 C 79.860 335.670,80.400 335.964,80.400 335.854 C 80.400 335.744,79.860 335.270,79.200 334.800 C 78.540 334.330,78.000 334.036,78.000 334.146 M82.800 337.346 C 82.800 337.456,83.340 337.930,84.000 338.400 C 84.660 338.870,85.200 339.164,85.200 339.054 C 85.200 338.944,84.660 338.470,84.000 338.000 C 83.340 337.530,82.800 337.236,82.800 337.346 M87.600 340.546 C 87.600 340.656,88.140 341.130,88.800 341.600 C 89.460 342.070,90.000 342.364,90.000 342.254 C 90.000 342.144,89.460 341.670,88.800 341.200 C 88.140 340.730,87.600 340.436,87.600 340.546 M95.549 346.123 C 95.851 346.495,96.264 346.800,96.466 346.800 C 96.669 346.800,97.777 347.475,98.929 348.300 C 101.238 349.953,102.800 350.897,102.800 350.640 C 102.800 350.489,97.023 346.595,95.600 345.787 C 95.083 345.493,95.076 345.540,95.549 346.123 M103.374 351.158 C 103.523 351.399,104.016 351.795,104.471 352.038 C 105.062 352.354,105.220 352.356,105.026 352.042 C 104.877 351.801,104.384 351.405,103.929 351.162 C 103.338 350.846,103.180 350.844,103.374 351.158 M112.244 357.046 C 113.100 357.621,114.025 358.273,114.300 358.495 C 114.575 358.716,114.800 358.801,114.800 358.684 C 114.800 358.367,111.506 356.000,111.065 356.000 C 110.858 356.000,111.388 356.471,112.244 357.046 M141.800 376.601 C 142.974 377.619,145.200 378.972,145.200 378.667 C 145.200 378.582,144.165 377.849,142.900 377.037 C 141.347 376.040,140.990 375.899,141.800 376.601 M151.200 382.750 C 152.313 383.689,153.232 383.709,153.532 382.800 C 153.699 382.295,153.629 382.283,153.092 382.727 C 152.559 383.167,152.268 383.142,151.327 382.579 L 150.200 381.905 151.200 382.750 " stroke="none" fill="#648c6c" fill-rule="evenodd"></path><path id="path2" d="M94.800 0.600 C 94.526 0.930,94.138 1.200,93.938 1.200 C 93.737 1.200,93.045 1.740,92.400 2.400 C 91.755 3.060,91.051 3.600,90.836 3.600 C 90.621 3.600,90.210 3.915,89.923 4.300 C 89.635 4.685,88.722 5.507,87.892 6.126 C 87.063 6.746,85.936 7.646,85.388 8.126 C 84.840 8.607,83.919 9.360,83.340 9.800 C 82.761 10.240,81.579 11.275,80.712 12.100 C 79.846 12.925,78.986 13.600,78.802 13.600 C 78.618 13.600,77.958 14.140,77.335 14.800 C 76.712 15.460,76.073 16.000,75.914 16.000 C 75.755 16.000,75.034 16.540,74.312 17.200 C 73.591 17.860,71.650 19.487,70.000 20.815 C 68.350 22.144,66.420 23.764,65.711 24.416 C 65.002 25.067,64.281 25.600,64.108 25.600 C 63.936 25.600,63.216 26.230,62.510 27.000 C 61.803 27.770,61.079 28.400,60.902 28.400 C 60.724 28.400,60.020 28.895,59.338 29.500 C 58.656 30.105,57.330 31.230,56.391 32.000 C 55.453 32.770,54.216 33.805,53.643 34.299 C 53.069 34.793,51.430 36.121,50.000 37.249 C 48.570 38.378,47.256 39.548,47.080 39.850 C 46.904 40.153,46.543 40.400,46.277 40.400 C 46.012 40.400,45.216 41.030,44.510 41.800 C 43.803 42.570,43.108 43.200,42.965 43.200 C 42.822 43.200,42.052 43.745,41.253 44.410 C 40.454 45.076,39.096 46.201,38.236 46.910 C 37.376 47.620,36.243 48.605,35.718 49.100 C 35.193 49.595,34.668 50.000,34.550 50.000 C 34.240 50.000,29.458 54.109,29.080 54.700 C 28.904 54.975,28.565 55.200,28.326 55.200 C 28.087 55.200,27.493 55.605,27.005 56.100 C 26.518 56.595,25.597 57.390,24.960 57.866 C 24.322 58.342,23.412 59.062,22.938 59.466 C 22.464 59.870,21.514 60.650,20.828 61.200 C 20.141 61.750,18.951 62.785,18.183 63.500 C 17.414 64.215,16.619 64.800,16.415 64.800 C 16.212 64.800,15.810 65.115,15.523 65.500 C 15.235 65.885,14.322 66.707,13.492 67.326 C 12.663 67.946,11.536 68.846,10.988 69.326 C 10.440 69.807,9.519 70.560,8.940 71.000 C 8.361 71.440,7.179 72.475,6.312 73.300 C 5.446 74.125,4.586 74.800,4.402 74.800 C 4.218 74.800,3.558 75.340,2.935 76.000 C 2.312 76.660,1.642 77.200,1.445 77.200 C -0.009 77.200,0.026 73.296,0.013 239.300 L 0.000 400.000 152.814 400.000 C 295.275 400.000,305.698 399.954,306.654 399.328 C 307.614 398.699,309.490 397.085,311.442 395.209 C 311.905 394.764,312.481 394.400,312.722 394.400 C 312.963 394.400,313.304 394.175,313.480 393.900 C 313.656 393.625,314.700 392.686,315.800 391.814 C 316.900 390.942,317.944 389.997,318.120 389.714 C 318.296 389.431,318.616 389.200,318.831 389.200 C 319.046 389.200,319.866 388.615,320.654 387.900 C 321.441 387.185,322.633 386.105,323.302 385.500 C 323.971 384.895,324.643 384.400,324.794 384.400 C 325.038 384.400,325.719 383.826,329.514 380.420 C 330.017 379.969,330.592 379.600,330.791 379.600 C 330.991 379.600,331.390 379.285,331.679 378.900 C 331.967 378.515,333.012 377.575,334.001 376.811 C 336.639 374.773,336.742 374.691,337.970 373.600 C 338.589 373.050,339.866 371.970,340.807 371.200 C 341.748 370.430,342.818 369.530,343.185 369.200 C 343.552 368.870,344.650 367.983,345.626 367.229 C 347.447 365.821,348.003 365.364,349.413 364.119 C 349.860 363.723,350.850 362.925,351.613 362.345 C 352.376 361.765,353.450 360.899,354.000 360.421 C 354.550 359.942,355.795 358.887,356.767 358.075 C 357.739 357.264,358.962 356.195,359.485 355.700 C 360.008 355.205,360.539 354.800,360.665 354.800 C 360.791 354.800,361.548 354.252,362.347 353.582 C 363.146 352.911,364.495 351.786,365.344 351.082 C 366.194 350.377,367.294 349.395,367.790 348.900 C 368.286 348.405,368.852 348.000,369.049 348.000 C 369.245 348.000,369.984 347.370,370.690 346.600 C 371.397 345.830,372.146 345.200,372.354 345.200 C 372.562 345.200,373.242 344.660,373.865 344.000 C 374.488 343.340,375.208 342.800,375.465 342.800 C 375.723 342.800,375.993 342.641,376.067 342.447 C 376.140 342.253,377.460 341.079,379.000 339.837 C 382.616 336.923,384.626 335.220,385.772 334.100 C 386.278 333.605,386.887 333.200,387.126 333.200 C 387.365 333.200,387.704 332.958,387.880 332.661 C 388.056 332.365,389.100 331.444,390.200 330.615 C 391.300 329.786,392.344 328.858,392.520 328.554 C 392.696 328.249,393.016 328.000,393.231 328.000 C 393.584 328.000,394.620 327.144,397.458 324.509 C 397.986 324.019,398.774 323.428,399.209 323.195 C 399.995 322.775,400.000 321.761,400.000 161.386 L 400.000 0.000 247.649 0.000 C 112.714 0.000,95.241 0.069,94.800 0.600 M258.700 45.388 C 259.617 45.731,259.266 47.168,258.200 47.436 C 257.650 47.574,257.200 47.818,257.200 47.979 C 257.200 48.140,256.480 48.510,255.600 48.800 C 254.720 49.090,254.000 49.479,254.000 49.664 C 254.000 49.849,253.811 50.000,253.580 50.000 C 253.090 50.000,243.897 54.447,243.600 54.828 C 243.490 54.969,242.725 55.304,241.900 55.573 C 241.075 55.842,240.400 56.199,240.400 56.367 C 240.400 56.535,239.680 56.910,238.800 57.200 C 237.920 57.490,237.200 57.850,237.200 58.000 C 237.200 58.150,236.480 58.510,235.600 58.800 C 234.720 59.090,234.000 59.479,234.000 59.664 C 234.000 59.849,233.811 60.000,233.581 60.000 C 233.136 60.000,221.799 65.496,204.600 74.049 C 198.880 76.894,193.990 79.216,193.733 79.210 C 193.477 79.205,193.207 79.347,193.133 79.527 C 193.060 79.707,191.740 80.456,190.200 81.192 C 188.660 81.928,186.922 82.861,186.338 83.265 C 185.326 83.966,183.529 84.000,147.738 83.991 L 110.200 83.981 105.000 78.623 C 102.140 75.676,93.815 67.238,86.500 59.871 C 74.646 47.933,72.738 45.796,73.367 45.167 C 73.597 44.936,258.081 45.156,258.700 45.388 M388.343 45.658 C 389.095 46.861,278.097 158.110,277.029 157.224 C 276.463 156.754,276.400 151.127,276.400 100.751 L 276.400 44.800 332.104 44.800 L 387.808 44.800 388.343 45.658 M270.957 45.833 C 271.091 46.181,271.200 96.221,271.200 157.033 L 271.200 267.600 234.043 267.600 C 200.529 267.600,196.862 267.538,196.643 266.967 C 196.509 266.619,196.400 225.255,196.400 175.047 C 196.400 105.294,196.288 83.648,195.927 83.287 C 195.325 82.685,190.493 85.210,233.000 63.917 C 274.317 43.220,270.629 44.977,270.957 45.833 M271.071 272.459 C 271.362 272.700,271.600 273.072,271.600 273.285 C 271.600 273.499,254.621 290.712,233.869 311.536 C 213.116 332.361,188.231 357.370,178.569 367.112 C 165.588 380.198,160.791 384.794,160.200 384.712 C 159.407 384.601,159.399 384.257,159.298 346.928 L 159.196 309.257 166.098 302.225 C 180.384 287.672,191.988 275.733,193.725 273.800 L 195.522 271.800 233.032 271.910 C 259.521 271.988,270.698 272.149,271.071 272.459 M153.520 308.480 C 153.886 308.846,154.000 317.605,154.000 345.461 C 154.000 381.662,153.922 384.000,152.720 384.000 C 152.294 384.000,149.854 382.322,149.667 381.900 C 149.593 381.735,149.323 381.595,149.067 381.589 C 148.810 381.583,147.893 381.043,147.029 380.389 C 146.165 379.735,145.220 379.200,144.929 379.200 C 144.638 379.200,144.400 379.028,144.400 378.819 C 144.400 378.609,143.778 378.143,143.018 377.782 C 142.259 377.421,141.426 376.873,141.169 376.563 C 140.912 376.253,140.448 376.000,140.138 376.000 C 139.829 376.000,139.471 375.730,139.345 375.400 C 139.218 375.070,138.926 374.800,138.695 374.800 C 138.464 374.800,137.686 374.350,136.964 373.800 C 136.243 373.250,135.456 372.800,135.214 372.800 C 134.973 372.800,134.671 372.530,134.545 372.200 C 134.418 371.870,134.126 371.600,133.895 371.600 C 133.664 371.600,132.886 371.150,132.164 370.600 C 131.443 370.050,130.656 369.600,130.414 369.600 C 130.173 369.600,129.871 369.330,129.745 369.000 C 129.618 368.670,129.326 368.400,129.095 368.400 C 128.864 368.400,128.119 367.982,127.438 367.471 C 126.757 366.959,125.930 366.422,125.600 366.275 C 125.088 366.049,120.615 363.032,119.400 362.094 C 119.180 361.924,118.100 361.208,117.000 360.503 C 115.900 359.798,114.816 359.081,114.591 358.911 C 112.685 357.466,110.391 356.000,110.035 356.000 C 109.796 356.000,109.600 355.822,109.600 355.605 C 109.600 355.388,109.015 354.942,108.300 354.613 C 106.790 353.919,106.177 353.536,103.331 351.500 C 102.178 350.675,101.108 350.000,100.953 350.000 C 100.799 350.000,99.756 349.309,98.636 348.465 C 97.516 347.621,96.150 346.694,95.600 346.405 C 95.050 346.117,94.510 345.766,94.400 345.625 C 94.290 345.485,93.300 344.791,92.200 344.082 C 89.592 342.403,88.993 342.003,87.253 340.776 C 86.454 340.213,85.485 339.634,85.100 339.489 C 84.715 339.344,84.400 339.039,84.400 338.813 C 84.400 338.586,84.192 338.400,83.938 338.400 C 83.684 338.400,82.919 337.982,82.238 337.471 C 81.557 336.959,80.685 336.425,80.300 336.283 C 79.915 336.141,79.600 335.873,79.600 335.687 C 79.600 335.501,78.970 335.102,78.200 334.800 C 77.430 334.498,76.800 334.100,76.800 333.915 C 76.800 333.731,76.350 333.409,75.800 333.200 C 75.250 332.991,74.800 332.669,74.800 332.485 C 74.800 332.300,74.170 331.902,73.400 331.600 C 72.630 331.298,72.000 330.900,72.000 330.715 C 72.000 330.531,71.550 330.209,71.000 330.000 C 70.450 329.791,70.000 329.435,70.000 329.210 C 70.000 328.984,69.749 328.800,69.442 328.800 C 69.136 328.800,67.423 327.810,65.635 326.600 C 63.848 325.390,62.224 324.400,62.026 324.400 C 61.829 324.400,61.607 324.265,61.533 324.100 C 61.325 323.632,57.721 321.200,57.235 321.200 C 56.996 321.200,56.800 321.016,56.800 320.790 C 56.800 320.565,56.350 320.209,55.800 320.000 C 55.250 319.791,54.800 319.469,54.800 319.285 C 54.800 319.100,54.170 318.702,53.400 318.400 C 52.630 318.098,52.000 317.699,52.000 317.513 C 52.000 317.327,51.685 317.059,51.300 316.917 C 50.915 316.775,50.043 316.241,49.362 315.729 C 48.681 315.218,47.916 314.800,47.662 314.800 C 47.408 314.800,47.200 314.628,47.200 314.419 C 47.200 314.209,46.578 313.743,45.818 313.382 C 45.059 313.021,44.226 312.473,43.969 312.163 C 43.712 311.853,43.248 311.600,42.938 311.600 C 42.629 311.600,42.271 311.330,42.145 311.000 C 42.018 310.670,41.664 310.400,41.357 310.400 C 41.051 310.400,40.800 310.130,40.800 309.800 C 40.800 309.470,40.980 309.200,41.200 309.200 C 41.420 309.200,41.600 308.930,41.600 308.600 C 41.600 307.794,152.715 307.675,153.520 308.480 " stroke="none" fill="#fcfcfc" fill-rule="evenodd"></path><path id="path3" d="M233.000 63.917 C 190.493 85.210,195.325 82.685,195.927 83.287 C 196.288 83.648,196.400 105.294,196.400 175.047 C 196.400 225.255,196.509 266.619,196.643 266.967 C 196.862 267.538,200.529 267.600,234.043 267.600 L 271.200 267.600 271.200 157.033 C 271.200 96.221,271.091 46.181,270.957 45.833 C 270.629 44.977,274.317 43.220,233.000 63.917 M332.928 102.072 C 282.336 152.663,277.594 157.297,276.928 156.794 C 276.230 156.266,276.229 156.275,276.907 157.015 C 277.595 157.764,279.131 156.269,333.107 102.293 C 363.628 71.772,388.510 46.800,388.400 46.800 C 388.290 46.800,363.327 71.672,332.928 102.072 M255.900 48.229 C 254.449 49.016,254.499 49.244,256.000 48.678 C 256.660 48.428,257.200 48.084,257.200 47.912 C 257.200 47.519,257.216 47.515,255.900 48.229 M252.176 50.222 C 251.412 50.834,251.413 50.838,252.200 50.476 C 252.640 50.274,253.270 50.008,253.600 49.886 C 254.118 49.693,254.115 49.659,253.576 49.632 C 253.234 49.614,252.604 49.880,252.176 50.222 M232.400 60.041 C 231.630 60.486,231.360 60.728,231.800 60.579 C 232.240 60.431,232.915 60.219,233.300 60.108 C 233.685 59.997,234.000 59.748,234.000 59.553 C 234.000 59.104,234.052 59.088,232.400 60.041 M229.200 61.600 C 228.430 62.022,227.944 62.374,228.120 62.383 C 228.544 62.405,230.800 61.232,230.800 60.990 C 230.800 60.728,230.777 60.737,229.200 61.600 M226.000 63.200 C 225.230 63.622,224.744 63.974,224.920 63.983 C 225.344 64.005,227.600 62.832,227.600 62.590 C 227.600 62.328,227.577 62.337,226.000 63.200 M222.800 64.800 C 222.030 65.222,221.544 65.574,221.720 65.583 C 222.144 65.605,224.400 64.432,224.400 64.190 C 224.400 63.928,224.377 63.937,222.800 64.800 M100.300 73.800 C 100.757 74.460,101.816 75.630,102.653 76.400 C 103.870 77.518,103.783 77.358,102.222 75.600 C 99.596 72.644,99.326 72.391,100.300 73.800 M202.700 74.629 C 201.205 75.440,201.296 75.778,202.800 75.000 C 203.460 74.659,204.000 74.294,204.000 74.190 C 204.000 73.932,203.957 73.947,202.700 74.629 M199.500 76.229 C 198.005 77.040,198.096 77.378,199.600 76.600 C 200.260 76.259,200.800 75.894,200.800 75.790 C 200.800 75.532,200.757 75.547,199.500 76.229 M196.300 77.829 C 194.805 78.640,194.896 78.978,196.400 78.200 C 197.060 77.859,197.600 77.494,197.600 77.390 C 197.600 77.132,197.557 77.147,196.300 77.829 M193.983 273.500 L 192.200 275.400 194.193 273.600 C 195.288 272.610,196.263 271.755,196.359 271.700 C 196.455 271.645,196.361 271.600,196.150 271.600 C 195.939 271.600,194.964 272.455,193.983 273.500 M197.062 272.100 C 197.164 272.265,213.802 272.400,234.036 272.400 L 270.826 272.400 271.188 273.300 C 271.432 273.909,271.557 273.990,271.575 273.549 C 271.589 273.191,271.359 272.698,271.064 272.453 C 270.447 271.941,196.746 271.589,197.062 272.100 M160.640 307.840 C 159.848 308.632,159.200 309.389,159.200 309.521 C 159.200 309.654,159.920 309.059,160.800 308.200 C 161.680 307.341,162.400 306.584,162.400 306.519 C 162.400 306.191,161.953 306.527,160.640 307.840 M153.098 308.438 C 153.485 308.935,153.619 317.251,153.700 345.838 L 153.804 382.600 153.902 345.749 C 153.994 311.061,153.959 308.866,153.300 308.349 C 152.680 307.863,152.657 307.873,153.098 308.438 M43.600 311.746 C 43.600 311.856,44.140 312.330,44.800 312.800 C 45.460 313.270,46.000 313.564,46.000 313.454 C 46.000 313.344,45.460 312.870,44.800 312.400 C 44.140 311.930,43.600 311.636,43.600 311.746 M47.203 314.286 C 47.205 314.459,47.655 314.808,48.204 315.063 C 48.752 315.317,49.101 315.363,48.978 315.165 C 48.652 314.637,47.199 313.918,47.203 314.286 M52.003 317.486 C 52.005 317.659,52.455 318.008,53.004 318.263 C 53.552 318.517,53.901 318.563,53.778 318.365 C 53.452 317.837,51.999 317.118,52.003 317.486 M56.803 320.686 C 56.805 320.859,57.255 321.208,57.804 321.463 C 58.352 321.717,58.701 321.763,58.578 321.565 C 58.252 321.037,56.799 320.318,56.803 320.686 M61.603 323.886 C 61.605 324.059,62.055 324.408,62.604 324.663 C 63.152 324.917,63.501 324.963,63.378 324.765 C 63.052 324.237,61.599 323.518,61.603 323.886 M66.574 327.158 C 66.723 327.399,67.216 327.795,67.671 328.038 C 68.262 328.354,68.420 328.356,68.226 328.042 C 68.077 327.801,67.584 327.405,67.129 327.162 C 66.538 326.846,66.380 326.844,66.574 327.158 M72.003 330.686 C 72.005 330.859,72.455 331.208,73.004 331.463 C 73.552 331.717,73.901 331.763,73.778 331.565 C 73.452 331.037,71.999 330.318,72.003 330.686 M76.803 333.886 C 76.805 334.059,77.255 334.408,77.804 334.663 C 78.352 334.917,78.701 334.963,78.578 334.765 C 78.252 334.237,76.799 333.518,76.803 333.886 M98.400 348.146 C 98.400 348.256,98.940 348.730,99.600 349.200 C 100.260 349.670,100.800 349.964,100.800 349.854 C 100.800 349.744,100.260 349.270,99.600 348.800 C 98.940 348.330,98.400 348.036,98.400 348.146 M178.406 366.958 L 160.612 385.000 177.732 368.000 C 191.968 353.864,197.231 348.445,196.327 348.858 C 196.257 348.890,188.193 357.035,178.406 366.958 M101.600 350.146 C 101.600 350.256,102.140 350.730,102.800 351.200 C 103.460 351.670,104.000 351.964,104.000 351.854 C 104.000 351.744,103.460 351.270,102.800 350.800 C 102.140 350.330,101.600 350.036,101.600 350.146 M119.233 362.146 C 120.040 362.851,121.352 363.273,120.851 362.665 C 120.549 362.299,120.024 362.000,119.684 362.000 C 119.345 362.000,119.142 362.066,119.233 362.146 M121.600 363.346 C 121.600 363.456,122.140 363.930,122.800 364.400 C 123.460 364.870,124.000 365.164,124.000 365.054 C 124.000 364.944,123.460 364.470,122.800 364.000 C 122.140 363.530,121.600 363.236,121.600 363.346 M126.400 366.546 C 126.400 366.656,126.940 367.130,127.600 367.600 C 128.260 368.070,128.800 368.364,128.800 368.254 C 128.800 368.144,128.260 367.670,127.600 367.200 C 126.940 366.730,126.400 366.436,126.400 366.546 M131.200 369.746 C 131.200 369.856,131.740 370.330,132.400 370.800 C 133.060 371.270,133.600 371.564,133.600 371.454 C 133.600 371.344,133.060 370.870,132.400 370.400 C 131.740 369.930,131.200 369.636,131.200 369.746 M136.000 372.946 C 136.000 373.056,136.540 373.530,137.200 374.000 C 137.860 374.470,138.400 374.764,138.400 374.654 C 138.400 374.544,137.860 374.070,137.200 373.600 C 136.540 373.130,136.000 372.836,136.000 372.946 M139.400 375.600 C 139.536 375.820,139.829 376.000,140.050 376.000 C 140.272 376.000,141.071 376.471,141.827 377.047 C 142.582 377.624,143.200 377.999,143.200 377.882 C 143.200 377.580,139.914 375.200,139.498 375.200 C 139.308 375.200,139.264 375.380,139.400 375.600 M146.400 379.746 C 146.400 379.856,146.940 380.330,147.600 380.800 C 148.260 381.270,148.800 381.564,148.800 381.454 C 148.800 381.344,148.260 380.870,147.600 380.400 C 146.940 379.930,146.400 379.636,146.400 379.746 " stroke="none" fill="#f4ecec" fill-rule="evenodd"></path></g></svg>