<svg id="svg" version="1.1" xmlns="http://www.w3.org/2000/svg" xmlns:xlink="http://www.w3.org/1999/xlink" width="400" height="400" viewBox="0, 0, 400,400"><g id="svgg"><path id="path0" d="M180.800 59.861 C 177.929 60.391,169.142 62.379,166.400 63.120 C 164.876 63.531,159.160 66.214,156.600 67.718 C 155.720 68.236,153.576 69.415,151.835 70.339 C 141.039 76.066,131.015 86.900,128.462 95.600 C 127.563 98.667,127.200 100.345,127.200 101.446 C 127.199 102.081,126.917 103.950,126.573 105.600 C 125.909 108.778,126.080 112.622,126.936 113.766 C 127.623 114.684,130.017 113.737,135.137 110.523 C 137.441 109.077,140.692 107.360,142.363 106.706 C 144.033 106.053,145.760 105.374,146.200 105.197 C 155.198 101.572,159.919 100.962,160.559 103.339 C 162.270 109.704,161.632 116.583,158.765 122.675 C 158.124 124.036,157.600 125.254,157.600 125.381 C 157.600 125.508,156.996 126.555,156.257 127.706 C 149.980 137.490,149.570 138.368,149.495 142.200 C 149.422 145.878,150.779 148.713,154.567 152.800 C 159.871 158.524,163.388 167.979,162.378 173.800 C 162.149 175.120,161.896 179.831,161.815 184.270 L 161.668 192.340 160.034 195.684 C 159.135 197.523,158.400 199.164,158.400 199.330 C 158.400 199.893,155.723 203.610,153.949 205.509 C 152.978 206.549,151.564 208.210,150.806 209.200 C 148.763 211.869,144.380 216.347,142.938 217.239 C 142.243 217.668,140.234 219.770,138.473 221.910 C 134.711 226.482,130.891 230.312,128.299 232.112 C 121.836 236.599,120.229 237.894,116.954 241.257 C 114.948 243.315,113.173 245.450,113.008 246.000 C 112.554 247.513,111.183 248.800,110.030 248.796 C 108.910 248.792,104.115 245.418,103.079 243.905 C 102.738 243.407,101.901 242.370,101.219 241.600 C 100.538 240.830,99.171 238.545,98.182 236.522 C 95.548 231.135,93.393 229.480,91.570 231.445 C 91.036 232.019,89.007 233.838,87.060 235.487 C 80.655 240.908,80.108 241.704,81.888 243.005 C 82.486 243.442,84.100 244.745,85.475 245.900 C 86.851 247.055,88.161 248.000,88.388 248.000 C 88.615 248.000,88.800 248.156,88.800 248.347 C 88.800 248.538,90.375 250.035,92.300 251.673 C 97.140 255.791,105.600 264.929,105.600 266.038 C 105.600 269.007,101.648 268.313,99.590 264.983 C 97.223 261.154,93.600 262.696,93.600 267.532 C 93.600 268.235,93.431 269.123,93.225 269.505 C 90.600 274.366,87.346 282.470,86.281 286.800 C 85.724 289.061,85.756 292.518,86.385 298.400 C 86.923 303.417,87.056 322.172,86.585 326.494 C 86.242 329.644,86.530 330.189,88.877 330.821 C 91.129 331.427,107.290 329.837,114.000 328.349 C 118.311 327.393,122.095 326.377,122.895 325.961 C 123.277 325.762,124.031 325.600,124.571 325.600 C 125.111 325.600,125.664 325.420,125.800 325.200 C 125.936 324.980,126.553 324.800,127.171 324.800 C 127.789 324.800,129.983 324.259,132.047 323.599 C 139.738 321.137,144.364 319.817,148.800 318.821 C 154.161 317.616,163.206 313.384,171.096 308.387 C 176.226 305.138,176.784 304.800,177.013 304.800 C 177.140 304.800,178.299 304.083,179.589 303.207 C 183.891 300.286,185.424 297.610,187.615 289.200 C 187.872 288.210,188.264 286.950,188.486 286.400 C 189.554 283.744,189.355 266.796,188.216 263.444 C 186.471 258.311,180.132 244.164,178.429 241.600 C 174.383 235.511,174.737 215.355,179.070 205.068 C 182.581 196.730,187.416 188.750,190.345 186.457 C 193.776 183.771,200.719 180.571,205.200 179.610 C 206.410 179.351,207.953 178.972,208.628 178.769 C 211.458 177.919,219.663 178.515,220.980 179.667 C 221.189 179.850,221.607 180.000,221.908 180.000 C 223.264 180.000,226.794 182.889,228.079 185.050 C 229.068 186.715,229.367 201.478,228.462 203.980 C 228.259 204.541,227.892 205.765,227.646 206.700 C 227.401 207.635,226.996 209.165,226.746 210.100 C 225.805 213.625,225.644 214.241,225.264 215.800 C 225.049 216.680,224.676 218.345,224.436 219.500 C 222.222 230.156,222.472 229.230,220.784 233.000 C 217.949 239.331,217.593 240.948,218.047 245.428 C 218.237 247.304,218.574 249.178,218.796 249.593 C 219.018 250.008,219.200 250.752,219.200 251.247 C 219.200 260.164,235.227 276.601,247.600 280.374 C 248.370 280.609,250.155 281.161,251.566 281.600 C 259.770 284.157,266.429 280.955,270.735 272.384 C 271.015 271.826,272.000 270.354,272.922 269.114 C 273.845 267.874,275.315 265.866,276.189 264.653 C 277.071 263.429,278.494 262.056,279.389 261.567 C 280.275 261.082,281.900 260.034,283.000 259.238 C 285.221 257.629,285.998 257.211,289.200 255.899 C 294.889 253.567,302.680 247.402,303.317 244.729 C 303.439 244.218,303.978 242.180,304.515 240.200 C 306.660 232.290,307.368 228.368,307.983 221.000 C 308.691 212.506,312.986 207.210,319.178 207.193 C 322.264 207.184,327.067 206.385,331.227 205.188 C 332.862 204.717,334.740 204.186,335.400 204.008 C 344.454 201.562,353.859 197.877,356.307 195.817 C 359.515 193.118,360.854 186.428,359.353 180.600 C 359.014 179.280,358.420 176.130,358.034 173.600 C 357.166 167.912,356.610 166.545,352.874 160.917 C 351.125 158.281,349.743 155.726,349.522 154.717 C 348.726 151.093,348.454 147.660,348.675 144.000 C 348.939 139.609,348.434 137.599,346.288 134.514 C 345.555 133.461,344.587 131.790,344.137 130.800 C 341.951 125.995,341.600 125.138,341.600 124.616 C 341.600 123.890,337.441 118.685,335.161 116.557 C 334.192 115.653,331.491 112.953,329.158 110.557 C 320.959 102.137,312.847 99.861,304.600 103.667 C 299.648 105.953,295.561 109.560,293.614 113.365 C 292.071 116.377,289.940 115.971,287.219 112.147 C 282.042 104.869,275.535 97.623,272.000 95.198 C 270.790 94.368,269.365 93.221,268.834 92.649 C 268.303 92.076,266.683 90.859,265.234 89.944 C 261.195 87.392,257.750 85.071,253.800 82.240 C 251.820 80.822,248.850 78.979,247.200 78.146 C 245.550 77.314,243.120 75.909,241.800 75.026 C 240.480 74.143,237.780 72.585,235.800 71.564 C 233.820 70.543,231.210 69.168,230.000 68.508 C 225.698 66.161,221.594 64.174,218.200 62.797 C 215.176 61.570,211.757 60.801,209.280 60.790 C 208.026 60.785,206.280 60.612,205.400 60.405 C 203.722 60.011,182.529 59.542,180.800 59.861 " stroke="none" fill="#1c1c1c" fill-rule="evenodd"></path><path id="path1" d="M187.600 4.800 C 187.600 5.044,185.733 5.200,182.800 5.200 C 179.867 5.200,178.000 5.356,178.000 5.600 C 178.000 5.833,176.667 6.000,174.800 6.000 C 172.933 6.000,171.600 6.167,171.600 6.400 C 171.600 6.629,170.400 6.800,168.800 6.800 C 167.200 6.800,166.000 6.971,166.000 7.200 C 166.000 7.420,165.100 7.600,164.000 7.600 C 162.900 7.600,162.000 7.780,162.000 8.000 C 162.000 8.220,161.100 8.400,160.000 8.400 C 158.900 8.400,158.000 8.580,158.000 8.800 C 158.000 9.020,157.100 9.200,156.000 9.200 C 154.900 9.200,154.000 9.380,154.000 9.600 C 154.000 9.820,153.280 10.000,152.400 10.000 C 151.520 10.000,150.800 10.180,150.800 10.400 C 150.800 10.620,150.181 10.800,149.424 10.800 C 148.667 10.800,147.936 10.980,147.800 11.200 C 147.664 11.420,147.023 11.600,146.376 11.600 C 145.729 11.600,145.200 11.780,145.200 12.000 C 145.200 12.220,144.581 12.400,143.824 12.400 C 143.067 12.400,142.336 12.580,142.200 12.800 C 142.064 13.020,141.423 13.200,140.776 13.200 C 140.129 13.200,139.600 13.380,139.600 13.600 C 139.600 13.820,139.060 14.000,138.400 14.000 C 137.740 14.000,137.200 14.180,137.200 14.400 C 137.200 14.620,136.660 14.800,136.000 14.800 C 135.340 14.800,134.800 14.980,134.800 15.200 C 134.800 15.420,134.260 15.600,133.600 15.600 C 132.940 15.600,132.400 15.780,132.400 16.000 C 132.400 16.220,132.040 16.400,131.600 16.400 C 131.160 16.400,130.800 16.580,130.800 16.800 C 130.800 17.020,130.260 17.200,129.600 17.200 C 128.940 17.200,128.400 17.380,128.400 17.600 C 128.400 17.820,127.961 18.000,127.424 18.000 C 126.887 18.000,126.336 18.180,126.200 18.400 C 126.064 18.620,125.603 18.800,125.176 18.800 C 124.749 18.800,124.400 18.980,124.400 19.200 C 124.400 19.420,124.040 19.600,123.600 19.600 C 123.160 19.600,122.800 19.780,122.800 20.000 C 122.800 20.220,122.260 20.400,121.600 20.400 C 120.940 20.400,120.400 20.580,120.400 20.800 C 120.400 21.020,120.040 21.200,119.600 21.200 C 119.160 21.200,118.800 21.380,118.800 21.600 C 118.800 21.820,118.440 22.000,118.000 22.000 C 117.560 22.000,117.200 22.180,117.200 22.400 C 117.200 22.620,116.840 22.800,116.400 22.800 C 115.960 22.800,115.600 22.980,115.600 23.200 C 115.600 23.420,115.240 23.600,114.800 23.600 C 114.360 23.600,114.000 23.780,114.000 24.000 C 114.000 24.220,113.640 24.400,113.200 24.400 C 112.760 24.400,112.400 24.580,112.400 24.800 C 112.400 25.020,112.040 25.200,111.600 25.200 C 111.160 25.200,110.800 25.380,110.800 25.600 C 110.800 25.820,110.440 26.000,110.000 26.000 C 109.560 26.000,109.200 26.180,109.200 26.400 C 109.200 26.620,108.840 26.800,108.400 26.800 C 107.960 26.800,107.600 26.980,107.600 27.200 C 107.600 27.420,107.240 27.600,106.800 27.600 C 106.360 27.600,106.000 27.780,106.000 28.000 C 106.000 28.220,105.640 28.400,105.200 28.400 C 104.760 28.400,104.400 28.580,104.400 28.800 C 104.400 29.020,104.040 29.200,103.600 29.200 C 103.160 29.200,102.800 29.380,102.800 29.600 C 102.800 29.820,102.564 30.000,102.275 30.000 C 101.987 30.000,101.364 30.360,100.892 30.800 C 100.420 31.240,99.756 31.600,99.417 31.600 C 99.078 31.600,98.800 31.780,98.800 32.000 C 98.800 32.220,98.564 32.400,98.275 32.400 C 97.987 32.400,97.364 32.760,96.892 33.200 C 96.420 33.640,95.796 34.000,95.505 34.000 C 95.214 34.000,94.717 34.360,94.400 34.800 C 94.083 35.240,93.503 35.600,93.112 35.600 C 92.720 35.600,92.400 35.780,92.400 36.000 C 92.400 36.220,92.157 36.400,91.859 36.400 C 91.562 36.400,90.754 36.940,90.063 37.600 C 89.372 38.260,88.575 38.800,88.292 38.800 C 88.009 38.800,87.517 39.160,87.200 39.600 C 86.883 40.040,86.343 40.400,86.000 40.400 C 85.657 40.400,85.117 40.760,84.800 41.200 C 84.483 41.640,84.020 42.000,83.771 42.000 C 83.522 42.000,82.754 42.540,82.063 43.200 C 81.372 43.860,80.647 44.400,80.452 44.400 C 80.256 44.400,79.355 45.120,78.448 46.000 C 77.541 46.880,76.608 47.600,76.374 47.600 C 76.140 47.600,75.071 48.500,74.000 49.600 C 72.929 50.700,71.853 51.600,71.611 51.600 C 71.368 51.600,69.563 53.220,67.600 55.200 C 65.637 57.180,63.853 58.800,63.635 58.800 C 63.118 58.800,57.200 64.718,57.200 65.235 C 57.200 65.453,55.580 67.237,53.600 69.200 C 51.620 71.163,50.000 72.968,50.000 73.211 C 50.000 73.453,49.100 74.529,48.000 75.600 C 46.900 76.671,46.000 77.740,46.000 77.974 C 46.000 78.208,45.280 79.141,44.400 80.048 C 43.520 80.955,42.800 81.856,42.800 82.052 C 42.800 82.247,42.260 82.972,41.600 83.663 C 40.940 84.354,40.400 85.122,40.400 85.371 C 40.400 85.620,40.040 86.083,39.600 86.400 C 39.160 86.717,38.800 87.257,38.800 87.600 C 38.800 87.943,38.440 88.483,38.000 88.800 C 37.560 89.117,37.200 89.609,37.200 89.892 C 37.200 90.175,36.660 90.972,36.000 91.663 C 35.340 92.354,34.800 93.162,34.800 93.459 C 34.800 93.757,34.620 94.000,34.400 94.000 C 34.180 94.000,34.000 94.320,34.000 94.712 C 34.000 95.103,33.640 95.683,33.200 96.000 C 32.760 96.317,32.400 96.814,32.400 97.105 C 32.400 97.396,32.040 98.020,31.600 98.492 C 31.160 98.964,30.800 99.587,30.800 99.875 C 30.800 100.164,30.620 100.400,30.400 100.400 C 30.180 100.400,30.000 100.678,30.000 101.017 C 30.000 101.356,29.640 102.020,29.200 102.492 C 28.760 102.964,28.400 103.587,28.400 103.875 C 28.400 104.164,28.220 104.400,28.000 104.400 C 27.780 104.400,27.600 104.760,27.600 105.200 C 27.600 105.640,27.420 106.000,27.200 106.000 C 26.980 106.000,26.800 106.360,26.800 106.800 C 26.800 107.240,26.620 107.600,26.400 107.600 C 26.180 107.600,26.000 107.960,26.000 108.400 C 26.000 108.840,25.820 109.200,25.600 109.200 C 25.380 109.200,25.200 109.560,25.200 110.000 C 25.200 110.440,25.020 110.800,24.800 110.800 C 24.580 110.800,24.400 111.160,24.400 111.600 C 24.400 112.040,24.220 112.400,24.000 112.400 C 23.780 112.400,23.600 112.760,23.600 113.200 C 23.600 113.640,23.420 114.000,23.200 114.000 C 22.980 114.000,22.800 114.360,22.800 114.800 C 22.800 115.240,22.620 115.600,22.400 115.600 C 22.180 115.600,22.000 115.960,22.000 116.400 C 22.000 116.840,21.820 117.200,21.600 117.200 C 21.380 117.200,21.200 117.560,21.200 118.000 C 21.200 118.440,21.020 118.800,20.800 118.800 C 20.580 118.800,20.400 119.160,20.400 119.600 C 20.400 120.040,20.220 120.400,20.000 120.400 C 19.780 120.400,19.600 120.760,19.600 121.200 C 19.600 121.640,19.420 122.000,19.200 122.000 C 18.980 122.000,18.800 122.540,18.800 123.200 C 18.800 123.860,18.620 124.400,18.400 124.400 C 18.180 124.400,18.000 124.760,18.000 125.200 C 18.000 125.640,17.820 126.000,17.600 126.000 C 17.380 126.000,17.200 126.349,17.200 126.776 C 17.200 127.203,17.020 127.664,16.800 127.800 C 16.580 127.936,16.400 128.487,16.400 129.024 C 16.400 129.561,16.220 130.000,16.000 130.000 C 15.780 130.000,15.600 130.540,15.600 131.200 C 15.600 131.860,15.420 132.400,15.200 132.400 C 14.980 132.400,14.800 132.760,14.800 133.200 C 14.800 133.640,14.620 134.000,14.400 134.000 C 14.180 134.000,14.000 134.540,14.000 135.200 C 14.000 135.860,13.820 136.400,13.600 136.400 C 13.380 136.400,13.200 136.940,13.200 137.600 C 13.200 138.260,13.020 138.800,12.800 138.800 C 12.580 138.800,12.400 139.340,12.400 140.000 C 12.400 140.660,12.220 141.200,12.000 141.200 C 11.780 141.200,11.600 141.729,11.600 142.376 C 11.600 143.023,11.420 143.664,11.200 143.800 C 10.980 143.936,10.800 144.667,10.800 145.424 C 10.800 146.181,10.620 146.800,10.400 146.800 C 10.180 146.800,10.000 147.329,10.000 147.976 C 10.000 148.623,9.820 149.264,9.600 149.400 C 9.380 149.536,9.200 150.267,9.200 151.024 C 9.200 151.781,9.020 152.400,8.800 152.400 C 8.580 152.400,8.400 153.120,8.400 154.000 C 8.400 154.880,8.220 155.600,8.000 155.600 C 7.780 155.600,7.600 156.500,7.600 157.600 C 7.600 158.700,7.420 159.600,7.200 159.600 C 6.980 159.600,6.800 160.500,6.800 161.600 C 6.800 162.700,6.620 163.600,6.400 163.600 C 6.180 163.600,6.000 164.500,6.000 165.600 C 6.000 166.700,5.820 167.600,5.600 167.600 C 5.371 167.600,5.200 168.800,5.200 170.400 C 5.200 172.000,5.029 173.200,4.800 173.200 C 4.567 173.200,4.400 174.533,4.400 176.400 C 4.400 178.267,4.233 179.600,4.000 179.600 C 3.756 179.600,3.600 181.467,3.600 184.400 C 3.600 187.333,3.444 189.200,3.200 189.200 C 2.942 189.200,2.800 193.600,2.800 201.600 C 2.800 209.600,2.942 214.000,3.200 214.000 C 3.444 214.000,3.600 215.867,3.600 218.800 C 3.600 221.733,3.756 223.600,4.000 223.600 C 4.233 223.600,4.400 224.933,4.400 226.800 C 4.400 228.667,4.567 230.000,4.800 230.000 C 5.022 230.000,5.200 231.067,5.200 232.400 C 5.200 233.733,5.378 234.800,5.600 234.800 C 5.822 234.800,6.000 235.867,6.000 237.200 C 6.000 238.533,6.178 239.600,6.400 239.600 C 6.620 239.600,6.800 240.500,6.800 241.600 C 6.800 242.700,6.980 243.600,7.200 243.600 C 7.420 243.600,7.600 244.320,7.600 245.200 C 7.600 246.080,7.780 246.800,8.000 246.800 C 8.220 246.800,8.400 247.520,8.400 248.400 C 8.400 249.280,8.580 250.000,8.800 250.000 C 9.020 250.000,9.200 250.720,9.200 251.600 C 9.200 252.480,9.380 253.200,9.600 253.200 C 9.820 253.200,10.000 253.920,10.000 254.800 C 10.000 255.680,10.180 256.400,10.400 256.400 C 10.620 256.400,10.800 256.940,10.800 257.600 C 10.800 258.260,10.980 258.800,11.200 258.800 C 11.420 258.800,11.600 259.340,11.600 260.000 C 11.600 260.660,11.780 261.200,12.000 261.200 C 12.220 261.200,12.400 261.740,12.400 262.400 C 12.400 263.060,12.580 263.600,12.800 263.600 C 13.020 263.600,13.200 264.140,13.200 264.800 C 13.200 265.460,13.380 266.000,13.600 266.000 C 13.820 266.000,14.000 266.540,14.000 267.200 C 14.000 267.860,14.180 268.400,14.400 268.400 C 14.620 268.400,14.800 268.940,14.800 269.600 C 14.800 270.260,14.980 270.800,15.200 270.800 C 15.420 270.800,15.600 271.239,15.600 271.776 C 15.600 272.313,15.780 272.864,16.000 273.000 C 16.220 273.136,16.400 273.597,16.400 274.024 C 16.400 274.451,16.580 274.800,16.800 274.800 C 17.020 274.800,17.200 275.239,17.200 275.776 C 17.200 276.313,17.380 276.864,17.600 277.000 C 17.820 277.136,18.000 277.597,18.000 278.024 C 18.000 278.451,18.180 278.800,18.400 278.800 C 18.620 278.800,18.800 279.160,18.800 279.600 C 18.800 280.040,18.980 280.400,19.200 280.400 C 19.420 280.400,19.600 280.760,19.600 281.200 C 19.600 281.640,19.780 282.000,20.000 282.000 C 20.220 282.000,20.400 282.540,20.400 283.200 C 20.400 283.860,20.580 284.400,20.800 284.400 C 21.020 284.400,21.200 284.760,21.200 285.200 C 21.200 285.640,21.380 286.000,21.600 286.000 C 21.820 286.000,22.000 286.360,22.000 286.800 C 22.000 287.240,22.180 287.600,22.400 287.600 C 22.620 287.600,22.800 287.960,22.800 288.400 C 22.800 288.840,22.980 289.200,23.200 289.200 C 23.420 289.200,23.600 289.560,23.600 290.000 C 23.600 290.440,23.780 290.800,24.000 290.800 C 24.220 290.800,24.400 291.160,24.400 291.600 C 24.400 292.040,24.580 292.400,24.800 292.400 C 25.020 292.400,25.200 292.760,25.200 293.200 C 25.200 293.640,25.380 294.000,25.600 294.000 C 25.820 294.000,26.000 294.360,26.000 294.800 C 26.000 295.240,26.180 295.600,26.400 295.600 C 26.620 295.600,26.800 295.836,26.800 296.125 C 26.800 296.413,27.160 297.036,27.600 297.508 C 28.040 297.980,28.400 298.644,28.400 298.983 C 28.400 299.322,28.580 299.600,28.800 299.600 C 29.020 299.600,29.200 299.920,29.200 300.312 C 29.200 300.703,29.560 301.283,30.000 301.600 C 30.440 301.917,30.800 302.497,30.800 302.888 C 30.800 303.280,30.980 303.600,31.200 303.600 C 31.420 303.600,31.600 303.920,31.600 304.312 C 31.600 304.703,31.960 305.283,32.400 305.600 C 32.840 305.917,33.200 306.497,33.200 306.888 C 33.200 307.280,33.380 307.600,33.600 307.600 C 33.820 307.600,34.000 307.836,34.000 308.125 C 34.000 308.413,34.360 309.036,34.800 309.508 C 35.240 309.980,35.600 310.527,35.600 310.724 C 35.600 310.921,36.140 311.646,36.800 312.337 C 37.460 313.028,38.000 313.825,38.000 314.108 C 38.000 314.391,38.360 314.883,38.800 315.200 C 39.240 315.517,39.600 316.025,39.600 316.328 C 39.600 316.631,40.140 317.383,40.800 318.000 C 41.460 318.617,42.000 319.337,42.000 319.600 C 42.000 319.863,42.540 320.583,43.200 321.200 C 43.860 321.817,44.400 322.533,44.400 322.792 C 44.400 323.051,45.120 323.954,46.000 324.800 C 46.880 325.646,47.600 326.541,47.600 326.791 C 47.600 327.040,48.680 328.304,50.000 329.600 C 51.320 330.896,52.400 332.151,52.400 332.389 C 52.400 332.921,68.681 349.200,69.214 349.200 C 69.423 349.200,70.692 350.280,72.032 351.600 C 73.373 352.920,74.634 354.000,74.834 354.000 C 75.035 354.000,75.941 354.720,76.848 355.600 C 77.755 356.480,78.673 357.200,78.888 357.200 C 79.103 357.200,79.783 357.740,80.400 358.400 C 81.017 359.060,81.720 359.600,81.964 359.600 C 82.208 359.600,82.972 360.140,83.663 360.800 C 84.354 361.460,85.122 362.000,85.371 362.000 C 85.620 362.000,86.083 362.360,86.400 362.800 C 86.717 363.240,87.257 363.600,87.600 363.600 C 87.943 363.600,88.483 363.960,88.800 364.400 C 89.117 364.840,89.657 365.200,90.000 365.200 C 90.343 365.200,90.883 365.560,91.200 366.000 C 91.517 366.440,92.057 366.800,92.400 366.800 C 92.743 366.800,93.283 367.160,93.600 367.600 C 93.917 368.040,94.497 368.400,94.888 368.400 C 95.280 368.400,95.600 368.580,95.600 368.800 C 95.600 369.020,95.920 369.200,96.312 369.200 C 96.703 369.200,97.283 369.560,97.600 370.000 C 97.917 370.440,98.497 370.800,98.888 370.800 C 99.280 370.800,99.600 370.980,99.600 371.200 C 99.600 371.420,99.920 371.600,100.312 371.600 C 100.703 371.600,101.283 371.960,101.600 372.400 C 101.917 372.840,102.497 373.200,102.888 373.200 C 103.280 373.200,103.600 373.380,103.600 373.600 C 103.600 373.820,103.960 374.000,104.400 374.000 C 104.840 374.000,105.200 374.180,105.200 374.400 C 105.200 374.620,105.560 374.800,106.000 374.800 C 106.440 374.800,106.800 374.980,106.800 375.200 C 106.800 375.420,107.160 375.600,107.600 375.600 C 108.040 375.600,108.400 375.780,108.400 376.000 C 108.400 376.220,108.760 376.400,109.200 376.400 C 109.640 376.400,110.000 376.580,110.000 376.800 C 110.000 377.020,110.360 377.200,110.800 377.200 C 111.240 377.200,111.600 377.380,111.600 377.600 C 111.600 377.820,111.960 378.000,112.400 378.000 C 112.840 378.000,113.200 378.180,113.200 378.400 C 113.200 378.620,113.560 378.800,114.000 378.800 C 114.440 378.800,114.800 378.980,114.800 379.200 C 114.800 379.420,115.160 379.600,115.600 379.600 C 116.040 379.600,116.400 379.780,116.400 380.000 C 116.400 380.220,116.760 380.400,117.200 380.400 C 117.640 380.400,118.000 380.580,118.000 380.800 C 118.000 381.020,118.360 381.200,118.800 381.200 C 119.240 381.200,119.600 381.380,119.600 381.600 C 119.600 381.820,119.960 382.000,120.400 382.000 C 120.840 382.000,121.200 382.180,121.200 382.400 C 121.200 382.620,121.740 382.800,122.400 382.800 C 123.060 382.800,123.600 382.980,123.600 383.200 C 123.600 383.420,123.960 383.600,124.400 383.600 C 124.840 383.600,125.200 383.780,125.200 384.000 C 125.200 384.220,125.740 384.400,126.400 384.400 C 127.060 384.400,127.600 384.580,127.600 384.800 C 127.600 385.020,127.960 385.200,128.400 385.200 C 128.840 385.200,129.200 385.380,129.200 385.600 C 129.200 385.820,129.740 386.000,130.400 386.000 C 131.060 386.000,131.600 386.180,131.600 386.400 C 131.600 386.620,132.140 386.800,132.800 386.800 C 133.460 386.800,134.000 386.980,134.000 387.200 C 134.000 387.420,134.540 387.600,135.200 387.600 C 135.860 387.600,136.400 387.780,136.400 388.000 C 136.400 388.220,136.940 388.400,137.600 388.400 C 138.260 388.400,138.800 388.580,138.800 388.800 C 138.800 389.020,139.340 389.200,140.000 389.200 C 140.660 389.200,141.200 389.380,141.200 389.600 C 141.200 389.820,141.740 390.000,142.400 390.000 C 143.060 390.000,143.600 390.180,143.600 390.400 C 143.600 390.620,144.320 390.800,145.200 390.800 C 146.080 390.800,146.800 390.980,146.800 391.200 C 146.800 391.420,147.340 391.600,148.000 391.600 C 148.660 391.600,149.200 391.780,149.200 392.000 C 149.200 392.220,149.920 392.400,150.800 392.400 C 151.680 392.400,152.400 392.580,152.400 392.800 C 152.400 393.020,153.109 393.200,153.976 393.200 C 154.843 393.200,155.664 393.380,155.800 393.600 C 155.936 393.820,156.847 394.000,157.824 394.000 C 158.801 394.000,159.600 394.180,159.600 394.400 C 159.600 394.620,160.500 394.800,161.600 394.800 C 162.700 394.800,163.600 394.980,163.600 395.200 C 163.600 395.422,164.667 395.600,166.000 395.600 C 167.333 395.600,168.400 395.778,168.400 396.000 C 168.400 396.229,169.600 396.400,171.200 396.400 C 172.800 396.400,174.000 396.571,174.000 396.800 C 174.000 397.040,175.600 397.200,178.000 397.200 C 180.400 397.200,182.000 397.360,182.000 397.600 C 182.000 397.861,188.267 398.000,200.000 398.000 C 211.733 398.000,218.000 397.861,218.000 397.600 C 218.000 397.363,219.467 397.200,221.600 397.200 C 223.733 397.200,225.200 397.037,225.200 396.800 C 225.200 396.571,226.400 396.400,228.000 396.400 C 229.600 396.400,230.800 396.229,230.800 396.000 C 230.800 395.778,231.867 395.600,233.200 395.600 C 234.533 395.600,235.600 395.422,235.600 395.200 C 235.600 394.980,236.500 394.800,237.600 394.800 C 238.700 394.800,239.600 394.620,239.600 394.400 C 239.600 394.180,240.500 394.000,241.600 394.000 C 242.700 394.000,243.600 393.820,243.600 393.600 C 243.600 393.380,244.320 393.200,245.200 393.200 C 246.080 393.200,246.800 393.020,246.800 392.800 C 246.800 392.580,247.520 392.400,248.400 392.400 C 249.280 392.400,250.000 392.220,250.000 392.000 C 250.000 391.780,250.720 391.600,251.600 391.600 C 252.480 391.600,253.200 391.420,253.200 391.200 C 253.200 390.980,253.740 390.800,254.400 390.800 C 255.060 390.800,255.600 390.620,255.600 390.400 C 255.600 390.180,256.320 390.000,257.200 390.000 C 258.080 390.000,258.800 389.820,258.800 389.600 C 258.800 389.380,259.340 389.200,260.000 389.200 C 260.660 389.200,261.200 389.020,261.200 388.800 C 261.200 388.580,261.740 388.400,262.400 388.400 C 263.060 388.400,263.600 388.220,263.600 388.000 C 263.600 387.780,264.140 387.600,264.800 387.600 C 265.460 387.600,266.000 387.420,266.000 387.200 C 266.000 386.980,266.540 386.800,267.200 386.800 C 267.860 386.800,268.400 386.620,268.400 386.400 C 268.400 386.180,268.760 386.000,269.200 386.000 C 269.640 386.000,270.000 385.820,270.000 385.600 C 270.000 385.380,270.540 385.200,271.200 385.200 C 271.860 385.200,272.400 385.020,272.400 384.800 C 272.400 384.580,272.760 384.400,273.200 384.400 C 273.640 384.400,274.000 384.220,274.000 384.000 C 274.000 383.780,274.540 383.600,275.200 383.600 C 275.860 383.600,276.400 383.420,276.400 383.200 C 276.400 382.980,276.760 382.800,277.200 382.800 C 277.640 382.800,278.000 382.620,278.000 382.400 C 278.000 382.180,278.360 382.000,278.800 382.000 C 279.240 382.000,279.600 381.820,279.600 381.600 C 279.600 381.380,280.140 381.200,280.800 381.200 C 281.460 381.200,282.000 381.020,282.000 380.800 C 282.000 380.580,282.360 380.400,282.800 380.400 C 283.240 380.400,283.600 380.220,283.600 380.000 C 283.600 379.780,283.960 379.600,284.400 379.600 C 284.840 379.600,285.200 379.420,285.200 379.200 C 285.200 378.980,285.560 378.800,286.000 378.800 C 286.440 378.800,286.800 378.620,286.800 378.400 C 286.800 378.180,287.160 378.000,287.600 378.000 C 288.040 378.000,288.400 377.820,288.400 377.600 C 288.400 377.380,288.760 377.200,289.200 377.200 C 289.640 377.200,290.000 377.020,290.000 376.800 C 290.000 376.580,290.360 376.400,290.800 376.400 C 291.240 376.400,291.600 376.220,291.600 376.000 C 291.600 375.780,291.960 375.600,292.400 375.600 C 292.840 375.600,293.200 375.420,293.200 375.200 C 293.200 374.980,293.520 374.800,293.912 374.800 C 294.303 374.800,294.883 374.440,295.200 374.000 C 295.517 373.560,296.097 373.200,296.488 373.200 C 296.880 373.200,297.200 373.020,297.200 372.800 C 297.200 372.580,297.560 372.400,298.000 372.400 C 298.440 372.400,298.800 372.220,298.800 372.000 C 298.800 371.780,299.120 371.600,299.512 371.600 C 299.903 371.600,300.483 371.240,300.800 370.800 C 301.117 370.360,301.697 370.000,302.088 370.000 C 302.480 370.000,302.800 369.820,302.800 369.600 C 302.800 369.380,303.120 369.200,303.512 369.200 C 303.903 369.200,304.483 368.840,304.800 368.400 C 305.117 367.960,305.657 367.600,306.000 367.600 C 306.343 367.600,306.883 367.240,307.200 366.800 C 307.517 366.360,308.057 366.000,308.400 366.000 C 308.743 366.000,309.283 365.640,309.600 365.200 C 309.917 364.760,310.457 364.400,310.800 364.400 C 311.143 364.400,311.683 364.040,312.000 363.600 C 312.317 363.160,312.825 362.800,313.128 362.800 C 313.431 362.800,314.183 362.260,314.800 361.600 C 315.417 360.940,316.137 360.400,316.400 360.400 C 316.663 360.400,317.383 359.860,318.000 359.200 C 318.617 358.540,319.337 358.000,319.600 358.000 C 319.863 358.000,320.583 357.460,321.200 356.800 C 321.817 356.140,322.530 355.600,322.786 355.600 C 323.042 355.600,324.129 354.700,325.200 353.600 C 326.271 352.500,327.347 351.600,327.591 351.600 C 327.835 351.600,329.459 350.160,331.200 348.400 C 332.941 346.640,334.539 345.200,334.750 345.200 C 335.252 345.200,343.600 336.852,343.600 336.350 C 343.600 336.139,345.040 334.541,346.800 332.800 C 348.560 331.059,350.000 329.435,350.000 329.191 C 350.000 328.947,350.900 327.871,352.000 326.800 C 353.100 325.729,354.000 324.642,354.000 324.386 C 354.000 324.130,354.540 323.417,355.200 322.800 C 355.860 322.183,356.400 321.463,356.400 321.200 C 356.400 320.937,356.940 320.217,357.600 319.600 C 358.260 318.983,358.800 318.263,358.800 318.000 C 358.800 317.737,359.340 317.017,360.000 316.400 C 360.660 315.783,361.200 315.031,361.200 314.728 C 361.200 314.425,361.560 313.917,362.000 313.600 C 362.440 313.283,362.800 312.743,362.800 312.400 C 362.800 312.057,363.160 311.517,363.600 311.200 C 364.040 310.883,364.400 310.343,364.400 310.000 C 364.400 309.657,364.760 309.117,365.200 308.800 C 365.640 308.483,366.000 307.943,366.000 307.600 C 366.000 307.257,366.360 306.717,366.800 306.400 C 367.240 306.083,367.600 305.503,367.600 305.112 C 367.600 304.720,367.780 304.400,368.000 304.400 C 368.220 304.400,368.400 304.080,368.400 303.688 C 368.400 303.297,368.760 302.717,369.200 302.400 C 369.640 302.083,370.000 301.503,370.000 301.112 C 370.000 300.720,370.180 300.400,370.400 300.400 C 370.620 300.400,370.800 300.040,370.800 299.600 C 370.800 299.160,370.980 298.800,371.200 298.800 C 371.420 298.800,371.600 298.480,371.600 298.088 C 371.600 297.697,371.960 297.117,372.400 296.800 C 372.840 296.483,373.200 295.903,373.200 295.512 C 373.200 295.120,373.380 294.800,373.600 294.800 C 373.820 294.800,374.000 294.440,374.000 294.000 C 374.000 293.560,374.180 293.200,374.400 293.200 C 374.620 293.200,374.800 292.840,374.800 292.400 C 374.800 291.960,374.980 291.600,375.200 291.600 C 375.420 291.600,375.600 291.240,375.600 290.800 C 375.600 290.360,375.780 290.000,376.000 290.000 C 376.220 290.000,376.400 289.640,376.400 289.200 C 376.400 288.760,376.580 288.400,376.800 288.400 C 377.020 288.400,377.200 288.040,377.200 287.600 C 377.200 287.160,377.380 286.800,377.600 286.800 C 377.820 286.800,378.000 286.440,378.000 286.000 C 378.000 285.560,378.180 285.200,378.400 285.200 C 378.620 285.200,378.800 284.840,378.800 284.400 C 378.800 283.960,378.980 283.600,379.200 283.600 C 379.420 283.600,379.600 283.060,379.600 282.400 C 379.600 281.740,379.780 281.200,380.000 281.200 C 380.220 281.200,380.400 280.840,380.400 280.400 C 380.400 279.960,380.580 279.600,380.800 279.600 C 381.020 279.600,381.200 279.240,381.200 278.800 C 381.200 278.360,381.380 278.000,381.600 278.000 C 381.820 278.000,382.000 277.460,382.000 276.800 C 382.000 276.140,382.180 275.600,382.400 275.600 C 382.620 275.600,382.800 275.240,382.800 274.800 C 382.800 274.360,382.980 274.000,383.200 274.000 C 383.420 274.000,383.600 273.460,383.600 272.800 C 383.600 272.140,383.780 271.600,384.000 271.600 C 384.220 271.600,384.400 271.240,384.400 270.800 C 384.400 270.360,384.580 270.000,384.800 270.000 C 385.020 270.000,385.200 269.460,385.200 268.800 C 385.200 268.140,385.380 267.600,385.600 267.600 C 385.820 267.600,386.000 267.060,386.000 266.400 C 386.000 265.740,386.180 265.200,386.400 265.200 C 386.620 265.200,386.800 264.660,386.800 264.000 C 386.800 263.340,386.980 262.800,387.200 262.800 C 387.420 262.800,387.600 262.260,387.600 261.600 C 387.600 260.940,387.780 260.400,388.000 260.400 C 388.220 260.400,388.400 259.680,388.400 258.800 C 388.400 257.920,388.580 257.200,388.800 257.200 C 389.020 257.200,389.200 256.660,389.200 256.000 C 389.200 255.340,389.380 254.800,389.600 254.800 C 389.820 254.800,390.000 254.080,390.000 253.200 C 390.000 252.320,390.180 251.600,390.400 251.600 C 390.620 251.600,390.800 250.880,390.800 250.000 C 390.800 249.120,390.980 248.400,391.200 248.400 C 391.420 248.400,391.600 247.680,391.600 246.800 C 391.600 245.920,391.780 245.200,392.000 245.200 C 392.220 245.200,392.400 244.300,392.400 243.200 C 392.400 242.100,392.580 241.200,392.800 241.200 C 393.020 241.200,393.200 240.300,393.200 239.200 C 393.200 238.100,393.380 237.200,393.600 237.200 C 393.822 237.200,394.000 236.133,394.000 234.800 C 394.000 233.467,394.178 232.400,394.400 232.400 C 394.629 232.400,394.800 231.200,394.800 229.600 C 394.800 228.000,394.971 226.800,395.200 226.800 C 395.437 226.800,395.600 225.333,395.600 223.200 C 395.600 221.067,395.763 219.600,396.000 219.600 C 396.261 219.600,396.400 213.333,396.400 201.600 C 396.400 189.867,396.261 183.600,396.000 183.600 C 395.760 183.600,395.600 182.000,395.600 179.600 C 395.600 177.200,395.440 175.600,395.200 175.600 C 394.971 175.600,394.800 174.400,394.800 172.800 C 394.800 171.200,394.629 170.000,394.400 170.000 C 394.178 170.000,394.000 168.933,394.000 167.600 C 394.000 166.267,393.822 165.200,393.600 165.200 C 393.380 165.200,393.200 164.300,393.200 163.200 C 393.200 162.100,393.020 161.200,392.800 161.200 C 392.580 161.200,392.400 160.401,392.400 159.424 C 392.400 158.447,392.220 157.536,392.000 157.400 C 391.780 157.264,391.600 156.443,391.600 155.576 C 391.600 154.709,391.420 154.000,391.200 154.000 C 390.980 154.000,390.800 153.280,390.800 152.400 C 390.800 151.520,390.620 150.800,390.400 150.800 C 390.180 150.800,390.000 150.260,390.000 149.600 C 390.000 148.940,389.820 148.400,389.600 148.400 C 389.380 148.400,389.200 147.680,389.200 146.800 C 389.200 145.920,389.020 145.200,388.800 145.200 C 388.580 145.200,388.400 144.660,388.400 144.000 C 388.400 143.340,388.220 142.800,388.000 142.800 C 387.780 142.800,387.600 142.260,387.600 141.600 C 387.600 140.940,387.420 140.400,387.200 140.400 C 386.980 140.400,386.800 139.860,386.800 139.200 C 386.800 138.540,386.620 138.000,386.400 138.000 C 386.180 138.000,386.000 137.460,386.000 136.800 C 386.000 136.140,385.820 135.600,385.600 135.600 C 385.380 135.600,385.200 135.060,385.200 134.400 C 385.200 133.740,385.020 133.200,384.800 133.200 C 384.580 133.200,384.400 132.660,384.400 132.000 C 384.400 131.340,384.220 130.800,384.000 130.800 C 383.780 130.800,383.600 130.440,383.600 130.000 C 383.600 129.560,383.420 129.200,383.200 129.200 C 382.980 129.200,382.800 128.660,382.800 128.000 C 382.800 127.340,382.620 126.800,382.400 126.800 C 382.180 126.800,382.000 126.440,382.000 126.000 C 382.000 125.560,381.820 125.200,381.600 125.200 C 381.380 125.200,381.200 124.660,381.200 124.000 C 381.200 123.340,381.020 122.800,380.800 122.800 C 380.580 122.800,380.400 122.440,380.400 122.000 C 380.400 121.560,380.220 121.200,380.000 121.200 C 379.780 121.200,379.600 120.840,379.600 120.400 C 379.600 119.960,379.420 119.600,379.200 119.600 C 378.980 119.600,378.800 119.240,378.800 118.800 C 378.800 118.360,378.620 118.000,378.400 118.000 C 378.180 118.000,378.000 117.640,378.000 117.200 C 378.000 116.760,377.820 116.400,377.600 116.400 C 377.380 116.400,377.200 116.040,377.200 115.600 C 377.200 115.160,377.020 114.800,376.800 114.800 C 376.580 114.800,376.400 114.440,376.400 114.000 C 376.400 113.560,376.220 113.200,376.000 113.200 C 375.780 113.200,375.600 112.840,375.600 112.400 C 375.600 111.960,375.420 111.600,375.200 111.600 C 374.980 111.600,374.800 111.240,374.800 110.800 C 374.800 110.360,374.620 110.000,374.400 110.000 C 374.180 110.000,374.000 109.640,374.000 109.200 C 374.000 108.760,373.820 108.400,373.600 108.400 C 373.380 108.400,373.200 108.040,373.200 107.600 C 373.200 107.160,373.020 106.800,372.800 106.800 C 372.580 106.800,372.400 106.440,372.400 106.000 C 372.400 105.560,372.220 105.200,372.000 105.200 C 371.780 105.200,371.600 104.880,371.600 104.488 C 371.600 104.097,371.240 103.517,370.800 103.200 C 370.360 102.883,370.000 102.303,370.000 101.912 C 370.000 101.520,369.820 101.200,369.600 101.200 C 369.380 101.200,369.200 100.880,369.200 100.488 C 369.200 100.097,368.840 99.517,368.400 99.200 C 367.960 98.883,367.600 98.303,367.600 97.912 C 367.600 97.520,367.420 97.200,367.200 97.200 C 366.980 97.200,366.800 96.880,366.800 96.488 C 366.800 96.097,366.440 95.517,366.000 95.200 C 365.560 94.883,365.200 94.343,365.200 94.000 C 365.200 93.657,364.840 93.117,364.400 92.800 C 363.960 92.483,363.600 91.943,363.600 91.600 C 363.600 91.257,363.240 90.717,362.800 90.400 C 362.360 90.083,362.000 89.543,362.000 89.200 C 362.000 88.857,361.640 88.317,361.200 88.000 C 360.760 87.683,360.400 87.220,360.400 86.971 C 360.400 86.722,359.860 85.954,359.200 85.263 C 358.540 84.572,358.000 83.808,358.000 83.564 C 358.000 83.320,357.460 82.617,356.800 82.000 C 356.140 81.383,355.600 80.703,355.600 80.488 C 355.600 80.273,354.880 79.355,354.000 78.448 C 353.120 77.541,352.400 76.635,352.400 76.434 C 352.400 76.234,351.320 74.973,350.000 73.632 C 348.680 72.292,347.600 71.023,347.600 70.814 C 347.600 70.281,331.321 54.000,330.789 54.000 C 330.551 54.000,329.296 52.920,328.000 51.600 C 326.704 50.280,325.440 49.200,325.191 49.200 C 324.941 49.200,324.046 48.480,323.200 47.600 C 322.354 46.720,321.451 46.000,321.192 46.000 C 320.933 46.000,320.217 45.460,319.600 44.800 C 318.983 44.140,318.263 43.600,318.000 43.600 C 317.737 43.600,317.017 43.060,316.400 42.400 C 315.783 41.740,315.031 41.200,314.728 41.200 C 314.425 41.200,313.917 40.840,313.600 40.400 C 313.283 39.960,312.791 39.600,312.508 39.600 C 312.225 39.600,311.428 39.060,310.737 38.400 C 310.046 37.740,309.321 37.200,309.124 37.200 C 308.927 37.200,308.380 36.840,307.908 36.400 C 307.436 35.960,306.813 35.600,306.525 35.600 C 306.236 35.600,306.000 35.420,306.000 35.200 C 306.000 34.980,305.680 34.800,305.288 34.800 C 304.897 34.800,304.317 34.440,304.000 34.000 C 303.683 33.560,303.103 33.200,302.712 33.200 C 302.320 33.200,302.000 33.020,302.000 32.800 C 302.000 32.580,301.680 32.400,301.288 32.400 C 300.897 32.400,300.317 32.040,300.000 31.600 C 299.683 31.160,299.103 30.800,298.712 30.800 C 298.320 30.800,298.000 30.620,298.000 30.400 C 298.000 30.180,297.722 30.000,297.383 30.000 C 297.044 30.000,296.380 29.640,295.908 29.200 C 295.436 28.760,294.813 28.400,294.525 28.400 C 294.236 28.400,294.000 28.220,294.000 28.000 C 294.000 27.780,293.640 27.600,293.200 27.600 C 292.760 27.600,292.400 27.420,292.400 27.200 C 292.400 26.980,292.040 26.800,291.600 26.800 C 291.160 26.800,290.800 26.620,290.800 26.400 C 290.800 26.180,290.440 26.000,290.000 26.000 C 289.560 26.000,289.200 25.820,289.200 25.600 C 289.200 25.380,288.840 25.200,288.400 25.200 C 287.960 25.200,287.600 25.020,287.600 24.800 C 287.600 24.580,287.240 24.400,286.800 24.400 C 286.360 24.400,286.000 24.220,286.000 24.000 C 286.000 23.780,285.640 23.600,285.200 23.600 C 284.760 23.600,284.400 23.420,284.400 23.200 C 284.400 22.980,284.040 22.800,283.600 22.800 C 283.160 22.800,282.800 22.620,282.800 22.400 C 282.800 22.180,282.260 22.000,281.600 22.000 C 280.940 22.000,280.400 21.820,280.400 21.600 C 280.400 21.380,280.040 21.200,279.600 21.200 C 279.160 21.200,278.800 21.020,278.800 20.800 C 278.800 20.580,278.440 20.400,278.000 20.400 C 277.560 20.400,277.200 20.220,277.200 20.000 C 277.200 19.780,276.851 19.600,276.424 19.600 C 275.997 19.600,275.536 19.420,275.400 19.200 C 275.264 18.980,274.713 18.800,274.176 18.800 C 273.639 18.800,273.200 18.620,273.200 18.400 C 273.200 18.180,272.851 18.000,272.424 18.000 C 271.997 18.000,271.536 17.820,271.400 17.600 C 271.264 17.380,270.713 17.200,270.176 17.200 C 269.639 17.200,269.200 17.020,269.200 16.800 C 269.200 16.580,268.660 16.400,268.000 16.400 C 267.340 16.400,266.800 16.220,266.800 16.000 C 266.800 15.780,266.260 15.600,265.600 15.600 C 264.940 15.600,264.400 15.420,264.400 15.200 C 264.400 14.980,263.860 14.800,263.200 14.800 C 262.540 14.800,262.000 14.620,262.000 14.400 C 262.000 14.180,261.460 14.000,260.800 14.000 C 260.140 14.000,259.600 13.820,259.600 13.600 C 259.600 13.380,259.060 13.200,258.400 13.200 C 257.740 13.200,257.200 13.020,257.200 12.800 C 257.200 12.580,256.660 12.400,256.000 12.400 C 255.340 12.400,254.800 12.220,254.800 12.000 C 254.800 11.780,254.080 11.600,253.200 11.600 C 252.320 11.600,251.600 11.420,251.600 11.200 C 251.600 10.980,250.880 10.800,250.000 10.800 C 249.120 10.800,248.400 10.620,248.400 10.400 C 248.400 10.180,247.680 10.000,246.800 10.000 C 245.920 10.000,245.200 9.820,245.200 9.600 C 245.200 9.380,244.480 9.200,243.600 9.200 C 242.720 9.200,242.000 9.020,242.000 8.800 C 242.000 8.580,241.100 8.400,240.000 8.400 C 238.900 8.400,238.000 8.220,238.000 8.000 C 238.000 7.778,236.933 7.600,235.600 7.600 C 234.267 7.600,233.200 7.422,233.200 7.200 C 233.200 6.978,232.133 6.800,230.800 6.800 C 229.467 6.800,228.400 6.622,228.400 6.400 C 228.400 6.167,227.067 6.000,225.200 6.000 C 223.333 6.000,222.000 5.833,222.000 5.600 C 222.000 5.356,220.133 5.200,217.200 5.200 C 214.267 5.200,212.400 5.044,212.400 4.800 C 212.400 4.542,208.000 4.400,200.000 4.400 C 192.000 4.400,187.600 4.542,187.600 4.800 M205.400 60.405 C 206.280 60.612,208.026 60.785,209.280 60.790 C 211.757 60.801,215.176 61.570,218.200 62.797 C 221.594 64.174,225.698 66.161,230.000 68.508 C 231.210 69.168,233.820 70.543,235.800 71.564 C 237.780 72.585,240.480 74.143,241.800 75.026 C 243.120 75.909,245.550 77.314,247.200 78.146 C 248.850 78.979,251.820 80.822,253.800 82.240 C 257.750 85.071,261.195 87.392,265.234 89.944 C 266.683 90.859,268.303 92.076,268.834 92.649 C 269.365 93.221,270.790 94.368,272.000 95.198 C 275.535 97.623,282.042 104.869,287.219 112.147 C 289.940 115.971,292.071 116.377,293.614 113.365 C 295.561 109.560,299.648 105.953,304.600 103.667 C 312.847 99.861,320.959 102.137,329.158 110.557 C 331.491 112.953,334.192 115.653,335.161 116.557 C 337.441 118.685,341.600 123.890,341.600 124.616 C 341.600 125.138,341.951 125.995,344.137 130.800 C 344.587 131.790,345.555 133.461,346.288 134.514 C 348.434 137.599,348.939 139.609,348.675 144.000 C 348.454 147.660,348.726 151.093,349.522 154.717 C 349.743 155.726,351.125 158.281,352.874 160.917 C 356.610 166.545,357.166 167.912,358.034 173.600 C 358.420 176.130,359.014 179.280,359.353 180.600 C 360.854 186.428,359.515 193.118,356.307 195.817 C 353.859 197.877,344.454 201.562,335.400 204.008 C 334.740 204.186,332.862 204.717,331.227 205.188 C 327.067 206.385,322.264 207.184,319.178 207.193 C 312.986 207.210,308.691 212.506,307.983 221.000 C 307.368 228.368,306.660 232.290,304.515 240.200 C 303.978 242.180,303.439 244.218,303.317 244.729 C 302.680 247.402,294.889 253.567,289.200 255.899 C 285.998 257.211,285.221 257.629,283.000 259.238 C 281.900 260.034,280.275 261.082,279.389 261.567 C 278.494 262.056,277.071 263.429,276.189 264.653 C 275.315 265.866,273.845 267.874,272.922 269.114 C 272.000 270.354,271.015 271.826,270.735 272.384 C 266.429 280.955,259.770 284.157,251.566 281.600 C 250.155 281.161,248.370 280.609,247.600 280.374 C 240.039 278.068,232.019 272.084,225.188 263.651 C 221.774 259.436,219.200 254.104,219.200 251.247 C 219.200 250.752,219.018 250.008,218.796 249.593 C 218.574 249.178,218.237 247.304,218.047 245.428 C 217.593 240.948,217.949 239.331,220.784 233.000 C 222.472 229.230,222.222 230.156,224.436 219.500 C 224.676 218.345,225.049 216.680,225.264 215.800 C 225.644 214.241,225.805 213.625,226.746 210.100 C 226.996 209.165,227.401 207.635,227.646 206.700 C 227.892 205.765,228.259 204.541,228.462 203.980 C 229.367 201.478,229.068 186.715,228.079 185.050 C 226.794 182.889,223.264 180.000,221.908 180.000 C 221.607 180.000,221.189 179.850,220.980 179.667 C 219.663 178.515,211.458 177.919,208.628 178.769 C 207.953 178.972,206.410 179.351,205.200 179.610 C 200.719 180.571,193.776 183.771,190.345 186.457 C 187.416 188.750,182.581 196.730,179.070 205.068 C 174.737 215.355,174.383 235.511,178.429 241.600 C 180.132 244.164,186.471 258.311,188.216 263.444 C 189.355 266.796,189.554 283.744,188.486 286.400 C 188.264 286.950,187.872 288.210,187.615 289.200 C 185.424 297.610,183.891 300.286,179.589 303.207 C 178.299 304.083,177.140 304.800,177.013 304.800 C 176.784 304.800,176.226 305.138,171.096 308.387 C 163.206 313.384,154.161 317.616,148.800 318.821 C 144.364 319.817,139.738 321.137,132.047 323.599 C 129.983 324.259,127.789 324.800,127.171 324.800 C 126.553 324.800,125.936 324.980,125.800 325.200 C 125.664 325.420,125.111 325.600,124.571 325.600 C 124.031 325.600,123.277 325.762,122.895 325.961 C 122.095 326.377,118.311 327.393,114.000 328.349 C 107.290 329.837,91.129 331.427,88.877 330.821 C 86.530 330.189,86.242 329.644,86.585 326.494 C 87.056 322.172,86.923 303.417,86.385 298.400 C 85.756 292.518,85.724 289.061,86.281 286.800 C 87.346 282.470,90.600 274.366,93.225 269.505 C 93.431 269.123,93.600 268.235,93.600 267.532 C 93.600 262.696,97.223 261.154,99.590 264.983 C 101.648 268.313,105.600 269.007,105.600 266.038 C 105.600 264.929,97.140 255.791,92.300 251.673 C 90.375 250.035,88.800 248.538,88.800 248.347 C 88.800 248.156,88.615 248.000,88.388 248.000 C 88.161 248.000,86.851 247.055,85.475 245.900 C 84.100 244.745,82.486 243.442,81.888 243.005 C 80.108 241.704,80.655 240.908,87.060 235.487 C 89.007 233.838,91.036 232.019,91.570 231.445 C 93.393 229.480,95.548 231.135,98.182 236.522 C 99.171 238.545,100.538 240.830,101.219 241.600 C 101.901 242.370,102.738 243.407,103.079 243.905 C 104.115 245.418,108.910 248.792,110.030 248.796 C 111.183 248.800,112.554 247.513,113.008 246.000 C 113.173 245.450,114.948 243.315,116.954 241.257 C 120.229 237.894,121.836 236.599,128.299 232.112 C 130.891 230.312,134.711 226.482,138.473 221.910 C 140.234 219.770,142.243 217.668,142.938 217.239 C 144.380 216.347,148.763 211.869,150.806 209.200 C 151.564 208.210,152.978 206.549,153.949 205.509 C 155.723 203.610,158.400 199.893,158.400 199.330 C 158.400 199.164,159.135 197.523,160.034 195.684 L 161.668 192.340 161.815 184.270 C 161.896 179.831,162.149 175.120,162.378 173.800 C 163.388 167.979,159.871 158.524,154.567 152.800 C 150.779 148.713,149.422 145.878,149.495 142.200 C 149.570 138.368,149.980 137.490,156.257 127.706 C 156.996 126.555,157.600 125.508,157.600 125.381 C 157.600 125.254,158.124 124.036,158.765 122.675 C 161.632 116.583,162.270 109.704,160.559 103.339 C 159.919 100.962,155.198 101.572,146.200 105.197 C 145.760 105.374,144.033 106.053,142.363 106.706 C 140.692 107.360,137.441 109.077,135.137 110.523 C 130.017 113.737,127.623 114.684,126.936 113.766 C 126.080 112.622,125.909 108.778,126.573 105.600 C 126.917 103.950,127.199 102.081,127.200 101.446 C 127.200 100.345,127.563 98.667,128.462 95.600 C 131.015 86.900,141.039 76.066,151.835 70.339 C 153.576 69.415,155.720 68.236,156.600 67.718 C 159.160 66.214,164.876 63.531,166.400 63.120 C 169.142 62.379,177.929 60.391,180.800 59.861 C 182.529 59.542,203.722 60.011,205.400 60.405 " stroke="none" fill="#fbfbfb" fill-rule="evenodd"></path></g></svg>