<?xml version="1.0" encoding="UTF-8" standalone="no"?>
<!DOCTYPE svg PUBLIC "-//W3C//DTD SVG 1.1//EN" "http://www.w3.org/Graphics/SVG/1.1/DTD/svg11.dtd">
<svg version="1.1" xmlns="http://www.w3.org/2000/svg" xmlns:xlink="http://www.w3.org/1999/xlink" preserveAspectRatio="xMidYMid meet" viewBox="0 0 640 640" width="640" height="640"><defs><path d="M0 1.81L640.52 1.81L640.52 640L0 640L0 1.81Z" id="aaDTMECM9R"></path><clipPath id="clipbCZ5Rtdq7"><use xlink:href="#aaDTMECM9R" opacity="1"></use></clipPath><path d="M567.47 561.46L535.72 315.91L135.19 173.52C147.83 248.61 155.72 295.54 158.88 314.31C158.96 314.75 159.22 315.13 159.6 315.36C213.98 348.18 349.94 430.21 567.47 561.46Z" id="cezjyXMcs"></path><path d="M72.81 84.86L126.39 84.86" id="hZCFinHKO"></path><path d="M463 282.54L530.28 255.47L525.2 216.81L412.98 267.69L463 282.54Z" id="c1iBRdBa3y"></path></defs><g><g><g><g><filter id="shadow4669606" x="-9" y="-7.19" width="659.52" height="657.19" filterUnits="userSpaceOnUse" primitiveUnits="userSpaceOnUse"><feFlood></feFlood><feComposite in2="SourceAlpha" operator="in"></feComposite><feGaussianBlur stdDeviation="1"></feGaussianBlur><feOffset dx="1" dy="1" result="afterOffset"></feOffset><feFlood flood-color="#000000" flood-opacity="0.5"></feFlood><feComposite in2="afterOffset" operator="in"></feComposite><feMorphology operator="dilate" radius="1"></feMorphology><feComposite in2="SourceAlpha" operator="out"></feComposite></filter><path d="M0 1.81L640.52 1.81L640.52 640L0 640L0 1.81Z" id="f4b23f94v" fill="white" fill-opacity="1" filter="url(#shadow4669606)"></path></g><use xlink:href="#aaDTMECM9R" opacity="1" fill="#212126" fill-opacity="1"></use><g clip-path="url(#clipbCZ5Rtdq7)"><use xlink:href="#aaDTMECM9R" opacity="1" fill-opacity="0" stroke="#f2efe9" stroke-width="10" stroke-opacity="1"></use></g></g><g><g><use xlink:href="#cezjyXMcs" opacity="1" fill-opacity="0" stroke="#f2efe9" stroke-width="20" stroke-opacity="1"></use></g></g><g><g><use xlink:href="#hZCFinHKO" opacity="1" fill-opacity="0" stroke="#f2efe9" stroke-width="20" stroke-opacity="1"></use></g></g><g><g><use xlink:href="#c1iBRdBa3y" opacity="1" fill-opacity="0" stroke="#f2efe9" stroke-width="15" stroke-opacity="1"></use></g></g></g></g></svg>